<svg width="30" height="30" viewBox="0 0 30 30" fill="none" xmlns="http://www.w3.org/2000/svg">
<g clip-path="url(#clip0_101_96)">
<path d="M17.6923 6.87815C17.7253 6.91664 17.7308 6.92764 17.7363 6.92764C18.2807 7.00462 18.5337 7.41154 18.8251 7.81845C19.1605 8.28035 19.5619 8.70376 19.9908 9.08868C21.1181 10.106 21.8109 11.3377 22.0419 12.8389C22.4433 15.4673 20.9366 18.1672 18.4622 19.2175C14.7065 20.8122 10.5109 18.3872 10.0765 14.3291C9.84551 12.168 10.6373 10.3809 12.287 8.9732C12.8204 8.5168 13.2658 7.98891 13.6342 7.38954C13.7002 7.27956 13.8212 7.19158 13.9366 7.13659C14.1236 7.04861 14.3326 6.99912 14.569 6.91664C14.492 6.82316 14.437 6.75718 14.3765 6.69119C14.0081 6.31177 13.6397 5.92136 13.2658 5.55293C13.1338 5.42096 13.0733 5.28349 13.0788 5.09653C13.0898 4.3157 13.0843 3.54037 13.0843 2.75953C13.0843 2.4461 13.4692 1.94571 13.7827 1.88522C14.1401 1.81374 14.5085 1.77524 14.8659 1.70376C14.9704 1.68176 15.0859 1.61578 15.1464 1.53329C15.6688 0.829446 16.5871 0.823947 17.104 1.5223C17.1754 1.61578 17.3129 1.68726 17.4284 1.71476C17.7583 1.78624 18.0937 1.82473 18.4292 1.88522C18.7646 1.95121 19.122 2.38561 19.122 2.72654C19.122 3.51287 19.1165 4.3047 19.1275 5.09103C19.133 5.29449 19.067 5.43196 18.9296 5.57493C18.5117 5.99834 18.1102 6.43275 17.6923 6.87815ZM15.3828 9.941C15.3663 10.007 15.3498 10.0455 15.3553 10.0785C15.4268 10.4469 15.2564 10.6064 14.9154 10.7438C14.2666 11.0133 13.9751 11.5576 13.9916 12.256C14.0081 12.9488 14.382 13.3778 15.0089 13.6032C15.2838 13.7022 15.5698 13.7737 15.8447 13.8672C16.0977 13.9496 16.3506 14.0321 16.5926 14.1311C16.796 14.2136 16.9115 14.373 16.8895 14.604C16.8675 14.8404 16.719 14.9779 16.5101 15.0164C16.2956 15.0604 16.0647 15.0989 15.8612 15.0494C15.4653 14.9559 15.0859 14.7965 14.668 14.6535C14.481 14.9009 14.2666 15.1814 14.0081 15.5278C14.3985 15.6983 14.734 15.8742 15.0914 15.9952C15.2948 16.0612 15.3773 16.1492 15.3498 16.3581C15.3333 16.5066 15.3443 16.6606 15.3443 16.831C15.6578 16.831 15.9217 16.831 16.1857 16.831C16.5651 16.831 16.5816 16.831 16.5596 16.4406C16.5486 16.1987 16.6036 16.0667 16.8675 16.0337C17.005 16.0172 17.1424 15.9402 17.2689 15.8687C17.8518 15.5498 18.0937 15.0384 18.0827 14.3895C18.0717 13.7737 17.7638 13.3503 17.2139 13.1028C16.9665 12.9928 16.7025 12.9104 16.4386 12.8224C16.1087 12.7124 15.7787 12.6134 15.4488 12.4924C15.2454 12.4155 15.1629 12.2505 15.1794 12.0305C15.1959 11.8216 15.3223 11.6786 15.5148 11.6456C15.7457 11.6071 15.9932 11.5851 16.2186 11.6236C16.4936 11.6731 16.752 11.7996 17.0435 11.8986C17.2249 11.6181 17.4119 11.3212 17.6318 10.9748C17.3789 10.8593 17.1644 10.7163 16.9335 10.6778C16.6091 10.6228 16.5101 10.4744 16.5486 10.1664C16.5596 10.095 16.4606 9.95199 16.4001 9.94649C16.0702 9.93 15.7238 9.941 15.3828 9.941Z" fill="#CAFF33"/>
<path d="M15.6795 28.9889C14.5082 28.9889 13.3315 28.956 12.1602 28.9999C11.3739 29.0274 10.703 28.791 10.0707 28.3731C9.17435 27.7737 8.35503 27.0919 7.64018 26.278C6.58441 25.0738 5.51764 23.8695 4.46186 22.6653C3.59855 21.6755 3.98897 20.2128 5.2207 19.8114C5.36367 19.7619 5.52864 19.7454 5.6771 19.7454C6.65589 19.7399 7.64018 19.7344 8.61897 19.7509C8.75644 19.7509 8.92141 19.8224 9.02039 19.9159C9.69124 20.5648 10.3511 21.2301 11.0055 21.8955C11.1374 22.0274 11.2584 22.0549 11.4454 22.0274C11.8413 21.967 12.2482 21.912 12.6496 21.912C14.5027 21.901 16.3503 21.9065 18.2034 21.9065C18.8358 21.9065 19.3032 22.2309 19.4681 22.7698C19.7211 23.5836 19.1272 24.3479 18.2199 24.3534C16.9937 24.3589 15.7619 24.3534 14.5357 24.3534C14.3158 24.3534 14.0958 24.3479 13.8758 24.3534C13.4799 24.3644 13.2215 24.6174 13.216 24.9748C13.216 25.3377 13.4744 25.6127 13.8648 25.6127C15.8169 25.6182 17.769 25.6182 19.7211 25.6127C20.117 25.6127 20.4029 25.3927 20.6779 25.1288C21.9536 23.9025 23.2293 22.6763 24.5106 21.4556C25.033 20.9552 25.7258 20.9332 26.2207 21.3786C26.7541 21.8625 26.7651 22.6433 26.2262 23.1877C25.6598 23.7651 25.0824 24.3094 24.5106 24.8648C23.2458 26.0911 21.9811 27.3118 20.7219 28.538C20.4139 28.835 20.073 28.9889 19.6386 28.9889C18.3189 28.9834 16.9992 28.9889 15.6795 28.9889Z" fill="#CAFF33"/>
<path d="M9.13576 5.75098C9.66915 6.28436 10.2025 6.81775 10.7249 7.34014C10.4005 7.66457 10.0596 8.00549 9.71864 8.34092C9.21274 7.81853 8.67936 7.26865 8.16797 6.74076C8.4704 6.43283 8.81133 6.08091 9.13576 5.75098Z" fill="#CAFF33"/>
<path d="M23.0203 5.75098C23.3448 6.07541 23.6802 6.42183 23.9936 6.73527C23.4712 7.25765 22.9269 7.80204 22.399 8.32442C22.08 8.00549 21.7446 7.65907 21.4092 7.32364C21.9316 6.81225 22.4705 6.28436 23.0203 5.75098Z" fill="#CAFF33"/>
<path d="M24.2851 14.4171C24.2851 13.9497 24.2796 13.5207 24.2906 13.0918C24.2906 13.0369 24.395 12.9379 24.45 12.9379C25.1209 12.9269 25.7862 12.9269 26.4571 12.9379C26.5121 12.9379 26.6166 13.0204 26.6166 13.0643C26.6276 13.5098 26.6221 13.9552 26.6221 14.4171C25.8357 14.4171 25.0769 14.4171 24.2851 14.4171Z" fill="#CAFF33"/>
<path d="M7.85461 14.4336C7.09577 14.4336 6.38642 14.4391 5.67157 14.4281C5.61659 14.4281 5.52861 14.3236 5.52311 14.2631C5.51211 13.8782 5.50661 13.4933 5.52311 13.1083C5.52311 13.0479 5.63308 12.9379 5.69357 12.9379C6.35343 12.9269 7.01329 12.9269 7.67315 12.9379C7.73363 12.9379 7.84361 13.0259 7.84361 13.0808C7.86011 13.5098 7.85461 13.9497 7.85461 14.4336Z" fill="#CAFF33"/>
</g>
<defs>
<clipPath id="clip0_101_96">
<rect width="22.6277" height="28" fill="white" transform="translate(4 1)"/>
</clipPath>
</defs>
</svg>
