<svg width="30" height="30" viewBox="0 0 30 30" fill="none" xmlns="http://www.w3.org/2000/svg">
<g clip-path="url(#clip0_101_120)">
<path d="M24.6576 14.0185C24.6576 14.7663 24.6676 15.5093 24.6525 16.2571C24.6425 16.6606 24.7579 17.0148 24.9687 17.3494C25.5107 18.2251 26.2284 18.9582 26.9561 19.6815C27.2271 19.9521 27.5081 20.2079 27.7942 20.4588C27.9347 20.5818 27.9999 20.7098 27.9999 20.9016C27.9899 21.7233 27.9899 22.54 27.9949 23.3617C27.9999 24.0456 27.6988 24.5572 27.0715 24.8426C26.4291 25.1329 25.8269 25.0099 25.2999 24.5622C24.2109 23.6274 23.1269 22.6876 22.0429 21.7528C21.3051 21.1132 20.5724 20.4638 19.8196 19.8438C19.5537 19.6224 19.2375 19.4601 18.9314 19.2928C18.4797 19.0468 17.9929 18.9139 17.4659 18.9336C17.0845 18.9484 16.6931 18.9533 16.3116 18.9238C15.7546 18.8795 15.3581 18.5007 15.2828 17.9791C15.2126 17.5216 15.4886 17.0296 15.9503 16.8524C16.126 16.7836 16.3217 16.754 16.5124 16.754C17.9577 16.7442 19.4031 16.7491 20.8535 16.7491C21.3955 16.7491 21.5912 16.5572 21.5912 16.021C21.5912 14.9385 21.5862 13.8561 21.5912 12.7737C21.5962 12.3604 21.4507 12.0357 21.1345 11.7553C19.3128 10.1513 17.5011 8.53756 15.6843 6.92379C15.1975 6.49082 15.1423 5.85122 15.5488 5.38381C15.9503 4.91641 16.6077 4.87213 17.1247 5.26573C19.4483 7.03695 21.7669 8.80816 24.1005 10.5695C24.4869 10.8598 24.6676 11.2141 24.6626 11.6815C24.6525 12.4588 24.6576 13.2362 24.6576 14.0185Z" fill="#CAFF33"/>
<path d="M1.00478 22.2054C1.00478 21.7626 1.0098 21.3198 0.999764 20.877C0.994745 20.7048 1.06501 20.5917 1.18043 20.4736C1.93824 19.711 2.68601 18.9385 3.42876 18.1612C3.58434 17.9988 3.69976 17.8069 3.83527 17.6298C4.19159 17.1526 4.3572 16.631 4.34214 16.0209C4.31203 14.6138 4.34716 13.2018 4.32709 11.7897C4.31705 11.2337 4.51779 10.8401 4.97448 10.4957C7.29307 8.76387 9.58657 7.00249 11.8901 5.24603C12.3719 4.87703 13.0343 4.93607 13.4258 5.37888C13.8273 5.83152 13.7921 6.48097 13.3254 6.90409C12.6178 7.5437 11.9001 8.16854 11.1875 8.80323C10.0583 9.802 8.92913 10.8057 7.79995 11.8045C7.53396 12.0406 7.40348 12.326 7.40348 12.6704C7.40348 13.8168 7.39846 14.9631 7.40348 16.1144C7.40348 16.5375 7.6243 16.7442 8.06092 16.7442C9.55144 16.7491 11.0369 16.7442 12.5275 16.7491C13.2301 16.7491 13.7219 17.2313 13.7068 17.8807C13.6968 18.3776 13.3304 18.8254 12.8236 18.8992C12.5224 18.9435 12.2063 18.9631 11.9001 18.9336C10.8713 18.8352 10.0031 19.2042 9.23527 19.8045C8.45237 20.4145 7.71965 21.0935 6.97188 21.738C5.87281 22.6827 4.77876 23.6372 3.67467 24.5769C2.78136 25.3395 1.46147 25.005 1.08006 23.9176C1.02988 23.7799 1.01482 23.6273 1.0098 23.4847C0.999764 23.0615 1.00478 22.6335 1.00478 22.2054Z" fill="#CAFF33"/>
<path d="M15.2122 15.0369C15.2122 15.2731 15.2122 15.4945 15.2122 15.7356C14.7907 15.7356 14.3892 15.7356 13.9526 15.7356C13.9526 15.5437 13.9476 15.3567 13.9526 15.1698C13.9576 15.032 13.9175 14.973 13.7719 14.9385C13.3554 14.8401 12.9689 14.6728 12.6076 14.3875C12.8385 14.0874 13.0593 13.802 13.26 13.5363C13.6414 13.679 13.9877 13.8463 14.3541 13.9299C14.6201 13.989 14.9161 13.9496 15.1922 13.9053C15.403 13.8709 15.5385 13.7085 15.5535 13.4871C15.5736 13.2608 15.4531 13.1033 15.2524 13.0246C14.9111 12.8967 14.5548 12.7983 14.2085 12.6851C13.9576 12.6015 13.6966 12.5277 13.4507 12.4244C12.8736 12.1833 12.5675 11.7552 12.5524 11.1255C12.5373 10.4662 12.7883 9.93483 13.3905 9.64947C13.7819 9.46251 14.1182 9.32474 13.9225 8.77862C14.349 8.77862 14.7204 8.7737 15.0968 8.78846C15.137 8.78846 15.2072 8.91146 15.2072 8.98034C15.2323 9.39855 15.2323 9.38871 15.6288 9.52647C15.8596 9.60519 16.0805 9.71835 16.3314 9.83151C16.1206 10.1513 15.95 10.4318 15.7593 10.6974C15.7292 10.7368 15.6087 10.7319 15.5385 10.7122C15.2072 10.6286 14.886 10.5203 14.5548 10.4564C14.4243 10.4318 14.2738 10.4711 14.1383 10.5056C13.9375 10.5597 13.802 10.6925 13.787 10.909C13.7719 11.1206 13.8673 11.2829 14.063 11.3616C14.3189 11.465 14.5799 11.5437 14.8409 11.6273C15.1269 11.7208 15.423 11.7897 15.699 11.893C16.497 12.1981 16.8182 12.6802 16.778 13.4723C16.7379 14.2005 16.2812 14.7417 15.5284 14.9533C15.4381 14.9828 15.3427 15.0074 15.2122 15.0369Z" fill="#CAFF33"/>
</g>
<defs>
<clipPath id="clip0_101_120">
<rect width="27" height="20" fill="white" transform="translate(1 5)"/>
</clipPath>
</defs>
</svg>
