<svg width="52" height="52" viewBox="0 0 52 52" fill="none" xmlns="http://www.w3.org/2000/svg">
<rect width="52" height="52" rx="26" fill="#CAFF33"/>
<path d="M21.5502 35.7497C30.6045 35.7497 35.5583 28.2465 35.5583 21.7416C35.5583 21.5307 35.5536 21.3151 35.5442 21.1041C36.5079 20.4072 37.3395 19.544 38 18.5551C37.1025 18.9544 36.1496 19.2151 35.1739 19.3285C36.2013 18.7127 36.9705 17.7452 37.3391 16.6055C36.3726 17.1783 35.3156 17.5824 34.2134 17.8004C33.4708 17.0113 32.489 16.4889 31.4197 16.3138C30.3504 16.1387 29.2532 16.3208 28.2977 16.8319C27.3423 17.3429 26.5818 18.1545 26.1338 19.1411C25.6859 20.1277 25.5754 21.2344 25.8195 22.2901C23.8625 22.1918 21.9479 21.6835 20.2 20.7979C18.452 19.9122 16.9097 18.6692 15.673 17.1493C15.0444 18.233 14.8521 19.5154 15.135 20.7358C15.418 21.9563 16.1551 23.0232 17.1964 23.7197C16.4146 23.6949 15.65 23.4844 14.9656 23.1057V23.1666C14.9649 24.3039 15.3581 25.4063 16.0783 26.2865C16.7985 27.1667 17.8013 27.7703 18.9162 27.9947C18.1921 28.1929 17.432 28.2218 16.6948 28.0791C17.0095 29.0572 17.6216 29.9126 18.4458 30.5261C19.27 31.1395 20.2651 31.4804 21.2923 31.501C19.5484 32.8709 17.3942 33.6139 15.1766 33.6104C14.7833 33.6098 14.3904 33.5857 14 33.5382C16.2529 34.9835 18.8735 35.7511 21.5502 35.7497Z" fill="#262626"/>
</svg>
