<svg width="180" height="36" viewBox="0 0 180 36" fill="none" xmlns="http://www.w3.org/2000/svg">
<g clip-path="url(#clip0_1_43)">
<path d="M26.385 21.39C26.2644 21.5136 26.1722 21.662 26.115 21.825C26.0772 21.9979 26.0772 22.177 26.115 22.35L27 28.245C27.0789 28.705 27.0269 29.178 26.85 29.61C26.6703 30.0464 26.3681 30.4215 25.98 30.69C25.5952 30.9604 25.1441 31.1211 24.675 31.155C24.2077 31.1741 23.7446 31.0597 23.34 30.825L18.555 28.17C18.3948 28.0798 18.2138 28.0333 18.03 28.035C17.8414 28.0334 17.6556 28.0799 17.49 28.17L12.735 30.825C12.3206 31.047 11.8549 31.1557 11.385 31.14C11.0371 31.1172 10.6979 31.0221 10.3889 30.8607C10.0799 30.6993 9.80796 30.4752 9.59054 30.2027C9.37311 29.9302 9.21495 29.6154 9.12618 29.2783C9.0374 28.9411 9.01997 28.5892 9.07498 28.245L10.035 22.35C10.0801 22.1779 10.0801 21.9971 10.035 21.825C9.98895 21.6604 9.9011 21.5105 9.77998 21.39L5.56498 17.145C5.25041 16.8129 5.02807 16.4044 4.91998 15.96C4.80017 15.518 4.80017 15.052 4.91998 14.61C5.08599 14.1743 5.36568 13.791 5.72998 13.5C6.08184 13.2037 6.5065 13.0069 6.95998 12.93L12.495 12.09C12.6736 12.0578 12.8427 11.9861 12.99 11.88C13.136 11.7686 13.2541 11.6248 13.335 11.46L15.735 6.29998C15.9339 5.87007 16.2513 5.50582 16.65 5.24998C17.0514 4.99517 17.517 4.85986 17.9925 4.85986C18.4679 4.85986 18.9336 4.99517 19.335 5.24998C19.7337 5.50582 20.0511 5.87007 20.25 6.29998L22.665 11.46C22.7411 11.6278 22.8601 11.7727 23.01 11.88C23.1556 11.989 23.3254 12.061 23.505 12.09L29.04 12.93C29.4935 13.0069 29.9181 13.2037 30.27 13.5C30.6145 13.8026 30.8731 14.1906 31.02 14.625C31.1398 15.067 31.1398 15.533 31.02 15.975C30.9119 16.4194 30.6896 16.8279 30.375 17.16L26.385 21.39Z" fill="#1B1B1D"/>
</g>
<g clip-path="url(#clip1_1_43)">
<path d="M62.385 21.39C62.2644 21.5136 62.1722 21.662 62.115 21.825C62.0772 21.9979 62.0772 22.177 62.115 22.35L63 28.245C63.0789 28.705 63.0269 29.178 62.85 29.61C62.6703 30.0464 62.3681 30.4215 61.98 30.69C61.5952 30.9604 61.1441 31.1211 60.675 31.155C60.2077 31.1741 59.7446 31.0597 59.34 30.825L54.555 28.17C54.3948 28.0798 54.2138 28.0333 54.03 28.035C53.8414 28.0334 53.6556 28.0799 53.49 28.17L48.735 30.825C48.3206 31.047 47.8549 31.1557 47.385 31.14C47.0371 31.1172 46.6979 31.0221 46.3889 30.8607C46.0799 30.6993 45.808 30.4752 45.5905 30.2027C45.3731 29.9302 45.215 29.6154 45.1262 29.2783C45.0374 28.9411 45.02 28.5892 45.075 28.245L46.035 22.35C46.0801 22.1779 46.0801 21.9971 46.035 21.825C45.989 21.6604 45.9011 21.5105 45.78 21.39L41.565 17.145C41.2504 16.8129 41.0281 16.4044 40.92 15.96C40.8002 15.518 40.8002 15.052 40.92 14.61C41.086 14.1743 41.3657 13.791 41.73 13.5C42.0818 13.2037 42.5065 13.0069 42.96 12.93L48.495 12.09C48.6736 12.0578 48.8427 11.9861 48.99 11.88C49.136 11.7686 49.2541 11.6248 49.335 11.46L51.735 6.29998C51.9339 5.87007 52.2513 5.50582 52.65 5.24998C53.0514 4.99517 53.517 4.85986 53.9925 4.85986C54.4679 4.85986 54.9336 4.99517 55.335 5.24998C55.7337 5.50582 56.0511 5.87007 56.25 6.29998L58.665 11.46C58.7411 11.6278 58.8601 11.7727 59.01 11.88C59.1556 11.989 59.3254 12.061 59.505 12.09L65.04 12.93C65.4935 13.0069 65.9181 13.2037 66.27 13.5C66.6145 13.8026 66.8731 14.1906 67.02 14.625C67.1398 15.067 67.1398 15.533 67.02 15.975C66.9119 16.4194 66.6896 16.8279 66.375 17.16L62.385 21.39Z" fill="#1B1B1D"/>
</g>
<g clip-path="url(#clip2_1_43)">
<path d="M98.385 21.39C98.2644 21.5136 98.1722 21.662 98.115 21.825C98.0772 21.9979 98.0772 22.177 98.115 22.35L99 28.245C99.0789 28.705 99.0269 29.178 98.85 29.61C98.6703 30.0464 98.3681 30.4215 97.98 30.69C97.5952 30.9604 97.1441 31.1211 96.675 31.155C96.2077 31.1741 95.7446 31.0597 95.34 30.825L90.555 28.17C90.3948 28.0798 90.2138 28.0333 90.03 28.035C89.8414 28.0334 89.6556 28.0799 89.49 28.17L84.735 30.825C84.3206 31.047 83.8549 31.1557 83.385 31.14C83.0371 31.1172 82.6979 31.0221 82.3889 30.8607C82.0799 30.6993 81.808 30.4752 81.5905 30.2027C81.3731 29.9302 81.215 29.6154 81.1262 29.2783C81.0374 28.9411 81.02 28.5892 81.075 28.245L82.035 22.35C82.0801 22.1779 82.0801 21.9971 82.035 21.825C81.989 21.6604 81.9011 21.5105 81.78 21.39L77.565 17.145C77.2504 16.8129 77.0281 16.4044 76.92 15.96C76.8002 15.518 76.8002 15.052 76.92 14.61C77.086 14.1743 77.3657 13.791 77.73 13.5C78.0818 13.2037 78.5065 13.0069 78.96 12.93L84.495 12.09C84.6736 12.0578 84.8427 11.9861 84.99 11.88C85.136 11.7686 85.2541 11.6248 85.335 11.46L87.735 6.29998C87.9339 5.87007 88.2513 5.50582 88.65 5.24998C89.0514 4.99517 89.517 4.85986 89.9925 4.85986C90.4679 4.85986 90.9336 4.99517 91.335 5.24998C91.7337 5.50582 92.0511 5.87007 92.25 6.29998L94.665 11.46C94.7411 11.6278 94.8601 11.7727 95.01 11.88C95.1556 11.989 95.3254 12.061 95.505 12.09L101.04 12.93C101.493 13.0069 101.918 13.2037 102.27 13.5C102.614 13.8026 102.873 14.1906 103.02 14.625C103.14 15.067 103.14 15.533 103.02 15.975C102.912 16.4194 102.69 16.8279 102.375 17.16L98.385 21.39Z" fill="#1B1B1D"/>
</g>
<g clip-path="url(#clip3_1_43)">
<path d="M134.385 21.39C134.264 21.5136 134.172 21.662 134.115 21.825C134.077 21.9979 134.077 22.177 134.115 22.35L135 28.245C135.079 28.705 135.027 29.178 134.85 29.61C134.67 30.0464 134.368 30.4215 133.98 30.69C133.595 30.9604 133.144 31.1211 132.675 31.155C132.208 31.1741 131.745 31.0597 131.34 30.825L126.555 28.17C126.395 28.0798 126.214 28.0333 126.03 28.035C125.841 28.0334 125.656 28.0799 125.49 28.17L120.735 30.825C120.321 31.047 119.855 31.1557 119.385 31.14C119.037 31.1172 118.698 31.0221 118.389 30.8607C118.08 30.6993 117.808 30.4752 117.591 30.2027C117.373 29.9302 117.215 29.6154 117.126 29.2783C117.037 28.9411 117.02 28.5892 117.075 28.245L118.035 22.35C118.08 22.1779 118.08 21.9971 118.035 21.825C117.989 21.6604 117.901 21.5105 117.78 21.39L113.565 17.145C113.25 16.8129 113.028 16.4044 112.92 15.96C112.8 15.518 112.8 15.052 112.92 14.61C113.086 14.1743 113.366 13.791 113.73 13.5C114.082 13.2037 114.507 13.0069 114.96 12.93L120.495 12.09C120.674 12.0578 120.843 11.9861 120.99 11.88C121.136 11.7686 121.254 11.6248 121.335 11.46L123.735 6.29998C123.934 5.87007 124.251 5.50582 124.65 5.24998C125.051 4.99517 125.517 4.85986 125.992 4.85986C126.468 4.85986 126.934 4.99517 127.335 5.24998C127.734 5.50582 128.051 5.87007 128.25 6.29998L130.665 11.46C130.741 11.6278 130.86 11.7727 131.01 11.88C131.156 11.989 131.325 12.061 131.505 12.09L137.04 12.93C137.493 13.0069 137.918 13.2037 138.27 13.5C138.614 13.8026 138.873 14.1906 139.02 14.625C139.14 15.067 139.14 15.533 139.02 15.975C138.912 16.4194 138.69 16.8279 138.375 17.16L134.385 21.39Z" fill="#1B1B1D"/>
</g>
<g clip-path="url(#clip4_1_43)">
<path d="M170.385 21.39C170.264 21.5136 170.172 21.662 170.115 21.825C170.077 21.9979 170.077 22.177 170.115 22.35L171 28.245C171.079 28.705 171.027 29.178 170.85 29.61C170.67 30.0464 170.368 30.4215 169.98 30.69C169.595 30.9604 169.144 31.1211 168.675 31.155C168.208 31.1741 167.745 31.0597 167.34 30.825L162.555 28.17C162.395 28.0798 162.214 28.0333 162.03 28.035C161.841 28.0334 161.656 28.0799 161.49 28.17L156.735 30.825C156.321 31.047 155.855 31.1557 155.385 31.14C155.037 31.1172 154.698 31.0221 154.389 30.8607C154.08 30.6993 153.808 30.4752 153.591 30.2027C153.373 29.9302 153.215 29.6154 153.126 29.2783C153.037 28.9411 153.02 28.5892 153.075 28.245L154.035 22.35C154.08 22.1779 154.08 21.9971 154.035 21.825C153.989 21.6604 153.901 21.5105 153.78 21.39L149.565 17.145C149.25 16.8129 149.028 16.4044 148.92 15.96C148.8 15.518 148.8 15.052 148.92 14.61C149.086 14.1743 149.366 13.791 149.73 13.5C150.082 13.2037 150.507 13.0069 150.96 12.93L156.495 12.09C156.674 12.0578 156.843 11.9861 156.99 11.88C157.136 11.7686 157.254 11.6248 157.335 11.46L159.735 6.29998C159.934 5.87007 160.251 5.50582 160.65 5.24998C161.051 4.99517 161.517 4.85986 161.992 4.85986C162.468 4.85986 162.934 4.99517 163.335 5.24998C163.734 5.50582 164.051 5.87007 164.25 6.29998L166.665 11.46C166.741 11.6278 166.86 11.7727 167.01 11.88C167.156 11.989 167.325 12.061 167.505 12.09L173.04 12.93C173.493 13.0069 173.918 13.2037 174.27 13.5C174.614 13.8026 174.873 14.1906 175.02 14.625C175.14 15.067 175.14 15.533 175.02 15.975C174.912 16.4194 174.69 16.8279 174.375 17.16L170.385 21.39Z" fill="#1B1B1D"/>
</g>
<defs>
<clipPath id="clip0_1_43">
<rect width="36" height="36" fill="white"/>
</clipPath>
<clipPath id="clip1_1_43">
<rect width="36" height="36" fill="white" transform="translate(36)"/>
</clipPath>
<clipPath id="clip2_1_43">
<rect width="36" height="36" fill="white" transform="translate(72)"/>
</clipPath>
<clipPath id="clip3_1_43">
<rect width="36" height="36" fill="white" transform="translate(108)"/>
</clipPath>
<clipPath id="clip4_1_43">
<rect width="36" height="36" fill="white" transform="translate(144)"/>
</clipPath>
</defs>
</svg>
